<mxfile host="app.diagrams.net" modified="2022-02-04T14:01:11.071Z" agent="5.0 (Macintosh; Intel Mac OS X 10_15_7) AppleWebKit/537.36 (KHTML, like Gecko) Chrome/81.0.4044.138 Safari/537.36" etag="UHSVs_DReSBsXIE6xPhV" version="15.8.8" type="github">
  <diagram id="mX0sLKAKvKs-7FFu5CTd" name="Page-1">
    <mxGraphModel dx="826" dy="433" grid="1" gridSize="10" guides="1" tooltips="1" connect="1" arrows="1" fold="1" page="1" pageScale="1" pageWidth="400" pageHeight="300" math="0" shadow="0">
      <root>
        <mxCell id="0" />
        <mxCell id="1" parent="0" />
        <mxCell id="RxUsYqzfX1g7jXiQbwDX-1" value="HPO Agent" style="shape=umlActor;verticalLabelPosition=bottom;verticalAlign=top;html=1;outlineConnect=0;" vertex="1" parent="1">
          <mxGeometry x="120" y="110" width="40" height="90" as="geometry" />
        </mxCell>
        <mxCell id="RxUsYqzfX1g7jXiQbwDX-2" value="" style="verticalLabelPosition=bottom;verticalAlign=top;html=1;shape=mxgraph.basic.cone;rotation=-180;" vertex="1" parent="1">
          <mxGeometry x="19.8" y="140" width="90" height="70" as="geometry" />
        </mxCell>
        <mxCell id="RxUsYqzfX1g7jXiQbwDX-3" value="Candidate configs" style="text;html=1;strokeColor=none;fillColor=none;align=center;verticalAlign=middle;whiteSpace=wrap;rounded=0;" vertex="1" parent="1">
          <mxGeometry y="117.5" width="130" height="20" as="geometry" />
        </mxCell>
        <mxCell id="RxUsYqzfX1g7jXiQbwDX-4" value="&lt;font style=&quot;font-size: 8px&quot;&gt;Successive halving&lt;/font&gt;" style="text;html=1;strokeColor=none;fillColor=none;align=center;verticalAlign=middle;whiteSpace=wrap;rounded=0;fontFamily=Helvetica;" vertex="1" parent="1">
          <mxGeometry x="34.8" y="150" width="60" height="30" as="geometry" />
        </mxCell>
        <mxCell id="RxUsYqzfX1g7jXiQbwDX-5" value="" style="endArrow=classic;html=1;rounded=0;fontFamily=Helvetica;fontSize=8;" edge="1" parent="1">
          <mxGeometry width="50" height="50" relative="1" as="geometry">
            <mxPoint x="109.8" y="140" as="sourcePoint" />
            <mxPoint x="109.8" y="210" as="targetPoint" />
          </mxGeometry>
        </mxCell>
        <mxCell id="RxUsYqzfX1g7jXiQbwDX-8" value="FL Train&amp;amp;Evaluate" style="shape=process;whiteSpace=wrap;html=1;backgroundOutline=1;fontFamily=Helvetica;fontSize=8;" vertex="1" parent="1">
          <mxGeometry x="270" y="110" width="120" height="35" as="geometry" />
        </mxCell>
        <mxCell id="RxUsYqzfX1g7jXiQbwDX-9" value="checkpoints" style="shape=cylinder3;whiteSpace=wrap;html=1;boundedLbl=1;backgroundOutline=1;size=15;fontFamily=Helvetica;fontSize=8;" vertex="1" parent="1">
          <mxGeometry x="295" y="160" width="70" height="60" as="geometry" />
        </mxCell>
        <mxCell id="RxUsYqzfX1g7jXiQbwDX-10" value="" style="endArrow=classic;html=1;rounded=0;fontFamily=Helvetica;fontSize=8;" edge="1" parent="1">
          <mxGeometry width="50" height="50" relative="1" as="geometry">
            <mxPoint x="310" y="145" as="sourcePoint" />
            <mxPoint x="310" y="180" as="targetPoint" />
          </mxGeometry>
        </mxCell>
        <mxCell id="RxUsYqzfX1g7jXiQbwDX-11" value="Save" style="text;html=1;strokeColor=none;fillColor=none;align=center;verticalAlign=middle;whiteSpace=wrap;rounded=0;fontFamily=Helvetica;fontSize=8;" vertex="1" parent="1">
          <mxGeometry x="260" y="140" width="60" height="30" as="geometry" />
        </mxCell>
        <mxCell id="RxUsYqzfX1g7jXiQbwDX-12" value="" style="endArrow=classic;html=1;rounded=0;fontFamily=Helvetica;fontSize=8;" edge="1" parent="1">
          <mxGeometry width="50" height="50" relative="1" as="geometry">
            <mxPoint x="350" y="180" as="sourcePoint" />
            <mxPoint x="350" y="145" as="targetPoint" />
          </mxGeometry>
        </mxCell>
        <mxCell id="RxUsYqzfX1g7jXiQbwDX-13" value="Load" style="text;html=1;strokeColor=none;fillColor=none;align=center;verticalAlign=middle;whiteSpace=wrap;rounded=0;fontFamily=Helvetica;fontSize=8;" vertex="1" parent="1">
          <mxGeometry x="340" y="140" width="60" height="30" as="geometry" />
        </mxCell>
        <mxCell id="RxUsYqzfX1g7jXiQbwDX-15" value="config" style="html=1;shadow=0;dashed=0;align=center;verticalAlign=middle;shape=mxgraph.arrows2.arrow;dy=0.6;dx=20.4;notch=0;fontFamily=Helvetica;fontSize=8;" vertex="1" parent="1">
          <mxGeometry x="160" y="110" width="100" height="30" as="geometry" />
        </mxCell>
        <mxCell id="RxUsYqzfX1g7jXiQbwDX-19" value="performance" style="html=1;shadow=0;dashed=0;align=center;verticalAlign=middle;shape=mxgraph.arrows2.arrow;dy=0.6;dx=20.4;notch=0;fontFamily=Helvetica;fontSize=8;direction=west;" vertex="1" parent="1">
          <mxGeometry x="160" y="140" width="100" height="30" as="geometry" />
        </mxCell>
        <mxCell id="RxUsYqzfX1g7jXiQbwDX-20" value="" style="rounded=0;whiteSpace=wrap;html=1;fontFamily=Helvetica;fontSize=8;fillColor=none;dashed=1;opacity=50;" vertex="1" parent="1">
          <mxGeometry x="10" y="85" width="180" height="140" as="geometry" />
        </mxCell>
        <mxCell id="RxUsYqzfX1g7jXiQbwDX-23" value="&lt;b&gt;Auto-tuning Component&lt;/b&gt;" style="text;html=1;strokeColor=none;fillColor=none;align=center;verticalAlign=middle;whiteSpace=wrap;rounded=0;dashed=1;fontFamily=Helvetica;fontSize=8;" vertex="1" parent="1">
          <mxGeometry x="60" y="85" width="75" height="30" as="geometry" />
        </mxCell>
        <mxCell id="RxUsYqzfX1g7jXiQbwDX-24" value="" style="rounded=0;whiteSpace=wrap;html=1;fontFamily=Helvetica;fontSize=8;fillColor=none;dashed=1;opacity=50;" vertex="1" parent="1">
          <mxGeometry x="230" y="85" width="170" height="140" as="geometry" />
        </mxCell>
        <mxCell id="RxUsYqzfX1g7jXiQbwDX-25" value="&lt;b&gt;FGL Component&lt;/b&gt;" style="text;html=1;strokeColor=none;fillColor=none;align=center;verticalAlign=middle;whiteSpace=wrap;rounded=0;dashed=1;fontFamily=Helvetica;fontSize=8;" vertex="1" parent="1">
          <mxGeometry x="252.5" y="80" width="125" height="30" as="geometry" />
        </mxCell>
      </root>
    </mxGraphModel>
  </diagram>
</mxfile>
